{"title":"Sahara (2005) 1080p BDRip 1080p Dual Audio [ Hindi DD 5.1-Eng 5.","uid":10836204,"size":4197720685,"categoryP":"video","categoryS":"hd___movies","magnet":"?xt=urn:btih:91d4543874b107b136b2ef59dc6eb0af34959d2d&amp;dn=Sahara+%282005%29+1080p+BDRip+1080p+Dual+Audio+%5B+Hindi+DD+5.1-Eng+5.&amp;tr=udp%3A%2F%2Ftracker.openbittorrent.com%3A80&amp;tr=udp%3A%2F%2Fopen.demonii.com%3A1337&amp;tr=udp%3A%2F%2Ftracker.coppersurfer.tk%3A6969&amp;tr=udp%3A%2F%2Fexodus.desync.com%3A6969","seeders":5,"leechers":6,"uploader":"inovai","files":25,"time":1408694219,"description":"Sahara (2005) 1080p BDRip 1080p Dual Audio [ Hindi DD 5.1-Eng 5.1] TQMovies.mkv\n\nSCREENSHOTS:\n &lt;a href=&quot;\nhttp://img.primetimeshow.in/share.php?id=9644_53F6DB00&quot; rel=&quot;nofollow&quot; target=&quot;_NEW&quot;&gt;\nhttp://img.primetimeshow.in/share.php?id=9644_53F6DB00&lt;/a&gt;\n &lt;a href=&quot;\nhttp://img.primetimeshow.in/share.php?id=1260_53F6DB00&quot; rel=&quot;nofollow&quot; target=&quot;_NEW&quot;&gt;\nhttp://img.primetimeshow.in/share.php?id=1260_53F6DB00&lt;/a&gt;\n &lt;a href=&quot;\nhttp://img.primetimeshow.in/share.php?id=CC75_53F6DB00&quot; rel=&quot;nofollow&quot; target=&quot;_NEW&quot;&gt;\nhttp://img.primetimeshow.in/share.php?id=CC75_53F6DB00&lt;/a&gt;\n &lt;a href=&quot;\nhttp://img.primetimeshow.in/share.php?id=9CDA_53F6DB00&quot; rel=&quot;nofollow&quot; target=&quot;_NEW&quot;&gt;\nhttp://img.primetimeshow.in/share.php?id=9CDA_53F6DB00&lt;/a&gt;\n &lt;a href=&quot;\nhttp://img.primetimeshow.in/share.php?id=B5C8_53F6DB00&quot; rel=&quot;nofollow&quot; target=&quot;_NEW&quot;&gt;\nhttp://img.primetimeshow.in/share.php?id=B5C8_53F6DB00&lt;/a&gt;\n\n :GENERAL INFO:\n\nFormat : Matroska\nFormat version : Version 4 / Version 2\nFile size : 3.82 GiB\nDuration : 2h 4mn\nOverall bit rate : 4 394 Kbps\nMovie name : Sahara (2005)1080p BDRip 1080p Dual Audio [ Hindi DD 5.1-Eng 5.1] TQMovies\n\n============================================================================\n\n:VIDEO INFO:\nID : 1\nFormat : AVC\nFormat/Info : Advanced Video Codec\nFormat profile : &lt;a class=&quot;__cf_email__&quot; href=&quot;/cdn-cgi/l/email-protection&quot; data-cfemail=&quot;6f270608072f235b415e&quot;&gt;[email&amp;#160;protected]&lt;/a&gt;&lt;script cf-hash='f9e31' type=&quot;text/javascript&quot;&gt;\n/* &lt;![CDATA[ */!function(){try{var t=&quot;currentScript&quot;in document?document.currentScript:function(){for(var t=document.getElementsByTagName(&quot;script&quot;),e=t.length;e--;)if(t[e].getAttribute(&quot;cf-hash&quot;))return t[e]}();if(t&amp;&amp;t.previousSibling){var e,r,n,i,c=t.previousSibling,a=c.getAttribute(&quot;data-cfemail&quot;);if(a){for(e=&quot;&quot;,r=parseInt(a.substr(0,2),16),n=2;a.length-n;n+=2)i=parseInt(a.substr(n,2),16)^r,e+=String.fromCharCode(i);e=document.createTextNode(e),c.parentNode.replaceChild(e,c)}}}catch(u){}}();/* ]]&gt; */&lt;/script&gt;\nFormat settings, CABAC : Yes\nFormat settings, ReFrames : 5 frames\nCodec ID : V_MPEG4/ISO/AVC\nDuration : 2h 4mn\nBit rate : 3 500 Kbps\nWidth : 1 920 pixels\nHeight : 800 pixels\nDisplay aspect ratio : 2.40:1\nFrame rate mode : Constant\nFrame rate : 23.976 fps\nStream size : 2.97 GiB (78%)\nWriting library : x264 core 142 r2431 ac76440\nDURATION : 02:04:24\nLanguage : English\nDefault : Yes\nForced : No\n\n============================================================================\n\n:AUDIO 1:\nID : 2\nFormat : AC-3\nFormat/Info : Audio Coding 3\nMode extension : CM (complete main)\nFormat settings, Endianness : Big\nCodec ID : A_AC3\nDuration : 2h 4mn\nBit rate mode : Constant\nBit rate : 448 Kbps\nChannel(s) : 6 channels\nChannel positions : Front: L C R, Side: L R, LFE\nSampling rate : 48.0 KHz\nBit depth : 16 bits\nCompression mode : Lossy\nDelay relative to video : 30s 730ms\nStream size : 399 MiB (10%)\nTitle : TQMovies\nLanguage : Hindi\nDefault : Yes\nForced : No\nSOURCE With Thanks :KISHAN WALL E\n============================================================================\n:AUDIO 2:\nID : 3\nFormat : AC-3\nFormat/Info : Audio Coding 3\nMode extension : CM (complete main)\nFormat settings, Endianness : Big\nCodec ID : A_AC3\nDuration : 2h 4mn\nBit rate mode : Constant\nBit rate : 448 Kbps\nChannel(s) : 6 channels\nChannel positions : Front: L C R, Side: L R, LFE\nSampling rate : 48.0 KHz\nBit depth : 16 bits\nCompression mode : Lossy\nStream size : 399 MiB (10%)\nTitle : TQMovies\nLanguage : English\nDefault : No\nForced : No\n\nMENU:YES\n\n============================================================================ \n\nThanks to TQMovies and HDDR!!\n\nSeed n Enjoy!!","torrent":{"xt":"urn:btih:91d4543874b107b136b2ef59dc6eb0af34959d2d","amp;dn":"Sahara+%282005%29+1080p+BDRip+1080p+Dual+Audio+%5B+Hindi+DD+5.1-Eng+5.","amp;tr":["udp%3A%2F%2Ftracker.openbittorrent.com%3A80","udp%3A%2F%2Fopen.demonii.com%3A1337","udp%3A%2F%2Ftracker.coppersurfer.tk%3A6969","udp%3A%2F%2Fexodus.desync.com%3A6969"],"infoHash":"91d4543874b107b136b2ef59dc6eb0af34959d2d","infoHashBuffer":{"type":"Buffer","data":[145,212,84,56,116,177,7,177,54,178,239,89,220,110,176,175,52,149,157,45]},"announce":[],"urlList":[]}}